<svg width="16" height="17" viewBox="0 0 16 17" fill="none" xmlns="http://www.w3.org/2000/svg">
<path fill-rule="evenodd" clip-rule="evenodd" d="M3.60889 14.5291C8.36084 14.5291 12.2131 10.6769 12.2131 5.92494C12.2131 3.85219 11.4801 1.95063 10.2593 0.465271C13.3349 1.77701 15.4908 4.82838 15.4908 8.38328C15.4908 13.1352 11.6386 16.9874 6.88662 16.9874C4.20742 16.9874 1.81423 15.7629 0.236206 13.8429C1.27187 14.2847 2.41183 14.5291 3.60889 14.5291Z" fill="white"/>
<path d="M4.83797 3.87637L5.50195 5.67073L7.29631 6.33471L5.50195 6.99868L4.83797 8.79304L4.174 6.99868L2.37964 6.33471L4.174 5.67073L4.83797 3.87637Z" fill="white"/>
<path d="M7.50117 8.3833L7.88848 9.43001L8.93519 9.81733L7.88848 10.2046L7.50117 11.2514L7.11385 10.2046L6.06714 9.81733L7.11385 9.43001L7.50117 8.3833Z" fill="white"/>
</svg>
