<svg width="65" height="16" viewBox="0 0 65 16" fill="none" xmlns="http://www.w3.org/2000/svg">
<path d="M8.1875 8.38281H9.6875C9.60938 9.10156 9.40365 9.74479 9.07031 10.3125C8.73698 10.8802 8.26562 11.3307 7.65625 11.6641C7.04688 11.9922 6.28646 12.1562 5.375 12.1562C4.70833 12.1562 4.10156 12.0312 3.55469 11.7812C3.01302 11.5312 2.54688 11.1771 2.15625 10.7188C1.76562 10.2552 1.46354 9.70052 1.25 9.05469C1.04167 8.40365 0.9375 7.67969 0.9375 6.88281V5.75C0.9375 4.95312 1.04167 4.23177 1.25 3.58594C1.46354 2.9349 1.76823 2.3776 2.16406 1.91406C2.5651 1.45052 3.04688 1.09375 3.60938 0.84375C4.17188 0.59375 4.80469 0.46875 5.50781 0.46875C6.36719 0.46875 7.09375 0.630208 7.6875 0.953125C8.28125 1.27604 8.74219 1.72396 9.07031 2.29688C9.40365 2.86458 9.60938 3.52344 9.6875 4.27344H8.1875C8.11458 3.74219 7.97917 3.28646 7.78125 2.90625C7.58333 2.52083 7.30208 2.22396 6.9375 2.01562C6.57292 1.80729 6.09635 1.70312 5.50781 1.70312C5.0026 1.70312 4.55729 1.79948 4.17188 1.99219C3.79167 2.1849 3.47135 2.45833 3.21094 2.8125C2.95573 3.16667 2.76302 3.59115 2.63281 4.08594C2.5026 4.58073 2.4375 5.13021 2.4375 5.73438V6.88281C2.4375 7.4401 2.49479 7.96354 2.60938 8.45312C2.72917 8.94271 2.90885 9.3724 3.14844 9.74219C3.38802 10.112 3.69271 10.4036 4.0625 10.6172C4.43229 10.8255 4.86979 10.9297 5.375 10.9297C6.01562 10.9297 6.52604 10.8281 6.90625 10.625C7.28646 10.4219 7.57292 10.1302 7.76562 9.75C7.96354 9.36979 8.10417 8.91406 8.1875 8.38281ZM16.6578 10.5547V6.20312C16.6578 5.86979 16.5901 5.58073 16.4547 5.33594C16.3245 5.08594 16.1266 4.89323 15.8609 4.75781C15.5953 4.6224 15.2672 4.55469 14.8766 4.55469C14.512 4.55469 14.1917 4.61719 13.9156 4.74219C13.6448 4.86719 13.4312 5.03125 13.275 5.23438C13.124 5.4375 13.0484 5.65625 13.0484 5.89062H11.6031C11.6031 5.58854 11.6812 5.28906 11.8375 4.99219C11.9937 4.69531 12.2177 4.42708 12.5094 4.1875C12.8062 3.94271 13.1604 3.75 13.5719 3.60938C13.9885 3.46354 14.4521 3.39062 14.9625 3.39062C15.5771 3.39062 16.1187 3.49479 16.5875 3.70312C17.0615 3.91146 17.4312 4.22656 17.6969 4.64844C17.9677 5.0651 18.1031 5.58854 18.1031 6.21875V10.1562C18.1031 10.4375 18.1266 10.737 18.1734 11.0547C18.2255 11.3724 18.301 11.6458 18.4 11.875V12H16.8922C16.8193 11.8333 16.762 11.612 16.7203 11.3359C16.6786 11.0547 16.6578 10.7943 16.6578 10.5547ZM16.9078 6.875L16.9234 7.89062H15.4625C15.051 7.89062 14.6839 7.92448 14.3609 7.99219C14.038 8.05469 13.7672 8.15104 13.5484 8.28125C13.3297 8.41146 13.163 8.57552 13.0484 8.77344C12.9339 8.96615 12.8766 9.19271 12.8766 9.45312C12.8766 9.71875 12.9365 9.96094 13.0562 10.1797C13.176 10.3984 13.3557 10.5729 13.5953 10.7031C13.8401 10.8281 14.1396 10.8906 14.4937 10.8906C14.9365 10.8906 15.3271 10.7969 15.6656 10.6094C16.0042 10.4219 16.2724 10.1927 16.4703 9.92188C16.6734 9.65104 16.7828 9.38802 16.7984 9.13281L17.4156 9.82812C17.3792 10.0469 17.2802 10.2891 17.1187 10.5547C16.9573 10.8203 16.7411 11.0755 16.4703 11.3203C16.2047 11.5599 15.887 11.7604 15.5172 11.9219C15.1526 12.0781 14.7411 12.1562 14.2828 12.1562C13.7099 12.1562 13.2073 12.0443 12.775 11.8203C12.3479 11.5964 12.0146 11.2969 11.775 10.9219C11.5406 10.5417 11.4234 10.1172 11.4234 9.64844C11.4234 9.19531 11.512 8.79688 11.6891 8.45312C11.8661 8.10417 12.1214 7.8151 12.4547 7.58594C12.788 7.35156 13.1891 7.17448 13.6578 7.05469C14.1266 6.9349 14.65 6.875 15.2281 6.875H16.9078ZM24.0656 3.54688V4.65625H19.4953V3.54688H24.0656ZM21.0422 1.49219H22.4875V9.90625C22.4875 10.1927 22.5318 10.4089 22.6203 10.5547C22.7089 10.7005 22.8234 10.7969 22.9641 10.8438C23.1047 10.8906 23.2557 10.9141 23.4172 10.9141C23.537 10.9141 23.662 10.9036 23.7922 10.8828C23.9276 10.8568 24.0292 10.8359 24.0969 10.8203L24.1047 12C23.9901 12.0365 23.8391 12.0703 23.6516 12.1016C23.4693 12.138 23.2479 12.1562 22.9875 12.1562C22.6333 12.1562 22.3078 12.0859 22.0109 11.9453C21.7141 11.8047 21.4771 11.5703 21.3 11.2422C21.1281 10.9089 21.0422 10.4609 21.0422 9.89844V1.49219ZM29.4188 12.1562C28.8302 12.1562 28.2964 12.0573 27.8172 11.8594C27.3432 11.6562 26.9344 11.3724 26.5906 11.0078C26.2521 10.6432 25.9917 10.2109 25.8094 9.71094C25.6271 9.21094 25.5359 8.66406 25.5359 8.07031V7.74219C25.5359 7.05469 25.6375 6.44271 25.8406 5.90625C26.0438 5.36458 26.3198 4.90625 26.6688 4.53125C27.0177 4.15625 27.4135 3.8724 27.8563 3.67969C28.299 3.48698 28.7573 3.39062 29.2313 3.39062C29.8354 3.39062 30.3563 3.49479 30.7938 3.70312C31.2365 3.91146 31.5984 4.20312 31.8797 4.57812C32.1609 4.94792 32.3693 5.38542 32.5047 5.89062C32.6401 6.39062 32.7078 6.9375 32.7078 7.53125V8.17969H26.3953V7H31.2625V6.89062C31.2417 6.51562 31.1635 6.15104 31.0281 5.79688C30.8979 5.44271 30.6896 5.15104 30.4031 4.92188C30.1167 4.69271 29.726 4.57812 29.2313 4.57812C28.9031 4.57812 28.601 4.64844 28.325 4.78906C28.049 4.92448 27.812 5.1276 27.6141 5.39844C27.4161 5.66927 27.2625 6 27.1531 6.39062C27.0438 6.78125 26.9891 7.23177 26.9891 7.74219V8.07031C26.9891 8.47135 27.0438 8.84896 27.1531 9.20312C27.2677 9.55208 27.4318 9.85938 27.6453 10.125C27.8641 10.3906 28.1271 10.599 28.4344 10.75C28.7469 10.901 29.101 10.9766 29.4969 10.9766C30.0073 10.9766 30.4396 10.8724 30.7938 10.6641C31.1479 10.4557 31.4578 10.1771 31.7234 9.82812L32.5984 10.5234C32.4161 10.7995 32.1844 11.0625 31.9031 11.3125C31.6219 11.5625 31.2755 11.7656 30.8641 11.9219C30.4578 12.0781 29.976 12.1562 29.4188 12.1562ZM40.0219 3.54688H41.3344V11.8203C41.3344 12.5651 41.1833 13.2005 40.8812 13.7266C40.5792 14.2526 40.1573 14.651 39.6156 14.9219C39.0792 15.1979 38.4594 15.3359 37.7562 15.3359C37.4646 15.3359 37.1208 15.2891 36.725 15.1953C36.3344 15.1068 35.949 14.9531 35.5687 14.7344C35.1937 14.5208 34.8786 14.2318 34.6234 13.8672L35.3812 13.0078C35.7354 13.4349 36.1052 13.7318 36.4906 13.8984C36.8812 14.0651 37.2667 14.1484 37.6469 14.1484C38.1052 14.1484 38.501 14.0625 38.8344 13.8906C39.1677 13.7188 39.4255 13.4635 39.6078 13.125C39.7953 12.7917 39.8891 12.3802 39.8891 11.8906V5.40625L40.0219 3.54688ZM34.2016 7.86719V7.70312C34.2016 7.05729 34.2771 6.47135 34.4281 5.94531C34.5844 5.41406 34.8057 4.95833 35.0922 4.57812C35.3839 4.19792 35.7354 3.90625 36.1469 3.70312C36.5583 3.49479 37.0219 3.39062 37.5375 3.39062C38.0687 3.39062 38.5323 3.48438 38.9281 3.67188C39.3292 3.85417 39.6677 4.1224 39.9437 4.47656C40.225 4.82552 40.4464 5.2474 40.6078 5.74219C40.7693 6.23698 40.8812 6.79688 40.9437 7.42188V8.14062C40.8865 8.76042 40.7745 9.31771 40.6078 9.8125C40.4464 10.3073 40.225 10.7292 39.9437 11.0781C39.6677 11.4271 39.3292 11.6953 38.9281 11.8828C38.5271 12.0651 38.0583 12.1562 37.5219 12.1562C37.0167 12.1562 36.5583 12.0495 36.1469 11.8359C35.7406 11.6224 35.3917 11.3229 35.1 10.9375C34.8083 10.5521 34.5844 10.099 34.4281 9.57812C34.2771 9.05208 34.2016 8.48177 34.2016 7.86719ZM35.6469 7.70312V7.86719C35.6469 8.28906 35.6885 8.6849 35.7719 9.05469C35.8604 9.42448 35.9932 9.75 36.1703 10.0312C36.3526 10.3125 36.5844 10.5339 36.8656 10.6953C37.1469 10.8516 37.4828 10.9297 37.8734 10.9297C38.3526 10.9297 38.7484 10.8281 39.0609 10.625C39.3734 10.4219 39.6208 10.1536 39.8031 9.82031C39.9906 9.48698 40.1365 9.125 40.2406 8.73438V6.85156C40.1833 6.5651 40.0948 6.28906 39.975 6.02344C39.8604 5.7526 39.7094 5.51302 39.5219 5.30469C39.3396 5.09115 39.113 4.92188 38.8422 4.79688C38.5714 4.67188 38.2536 4.60938 37.8891 4.60938C37.4932 4.60938 37.1521 4.69271 36.8656 4.85938C36.5844 5.02083 36.3526 5.24479 36.1703 5.53125C35.9932 5.8125 35.8604 6.14062 35.7719 6.51562C35.6885 6.88542 35.6469 7.28125 35.6469 7.70312ZM43.2969 7.86719V7.6875C43.2969 7.07812 43.3854 6.51302 43.5625 5.99219C43.7396 5.46615 43.9948 5.01042 44.3281 4.625C44.6615 4.23438 45.0651 3.93229 45.5391 3.71875C46.013 3.5 46.5443 3.39062 47.1328 3.39062C47.7266 3.39062 48.2604 3.5 48.7344 3.71875C49.2135 3.93229 49.6198 4.23438 49.9531 4.625C50.2917 5.01042 50.5495 5.46615 50.7266 5.99219C50.9036 6.51302 50.9922 7.07812 50.9922 7.6875V7.86719C50.9922 8.47656 50.9036 9.04167 50.7266 9.5625C50.5495 10.0833 50.2917 10.5391 49.9531 10.9297C49.6198 11.3151 49.2161 11.6172 48.7422 11.8359C48.2734 12.0495 47.7422 12.1562 47.1484 12.1562C46.5547 12.1562 46.0208 12.0495 45.5469 11.8359C45.0729 11.6172 44.6667 11.3151 44.3281 10.9297C43.9948 10.5391 43.7396 10.0833 43.5625 9.5625C43.3854 9.04167 43.2969 8.47656 43.2969 7.86719ZM44.7422 7.6875V7.86719C44.7422 8.28906 44.7917 8.6875 44.8906 9.0625C44.9896 9.43229 45.138 9.76042 45.3359 10.0469C45.5391 10.3333 45.7917 10.5599 46.0938 10.7266C46.3958 10.888 46.7474 10.9688 47.1484 10.9688C47.5443 10.9688 47.8906 10.888 48.1875 10.7266C48.4896 10.5599 48.7396 10.3333 48.9375 10.0469C49.1354 9.76042 49.2839 9.43229 49.3828 9.0625C49.487 8.6875 49.5391 8.28906 49.5391 7.86719V7.6875C49.5391 7.27083 49.487 6.8776 49.3828 6.50781C49.2839 6.13281 49.1328 5.80208 48.9297 5.51562C48.7318 5.22396 48.4818 4.99479 48.1797 4.82812C47.8828 4.66146 47.5339 4.57812 47.1328 4.57812C46.737 4.57812 46.388 4.66146 46.0859 4.82812C45.7891 4.99479 45.5391 5.22396 45.3359 5.51562C45.138 5.80208 44.9896 6.13281 44.8906 6.50781C44.7917 6.8776 44.7422 7.27083 44.7422 7.6875ZM54.4 4.875V12H52.9547V3.54688H54.3609L54.4 4.875ZM57.0406 3.5L57.0328 4.84375C56.913 4.81771 56.7984 4.80208 56.6891 4.79688C56.5849 4.78646 56.4651 4.78125 56.3297 4.78125C55.9964 4.78125 55.7021 4.83333 55.4469 4.9375C55.1917 5.04167 54.9755 5.1875 54.7984 5.375C54.6214 5.5625 54.4807 5.78646 54.3766 6.04688C54.2776 6.30208 54.2125 6.58333 54.1813 6.89062L53.775 7.125C53.775 6.61458 53.8245 6.13542 53.9234 5.6875C54.0276 5.23958 54.1865 4.84375 54.4 4.5C54.6135 4.15104 54.8844 3.88021 55.2125 3.6875C55.5458 3.48958 55.9417 3.39062 56.4 3.39062C56.5042 3.39062 56.624 3.40365 56.7594 3.42969C56.8948 3.45052 56.9885 3.47396 57.0406 3.5ZM61.0422 11.125L63.3937 3.54688H64.9406L61.55 13.3047C61.4719 13.513 61.3677 13.737 61.2375 13.9766C61.1125 14.2214 60.951 14.4531 60.7531 14.6719C60.5552 14.8906 60.3156 15.0677 60.0344 15.2031C59.7583 15.3438 59.4276 15.4141 59.0422 15.4141C58.9276 15.4141 58.7818 15.3984 58.6047 15.3672C58.4276 15.3359 58.3026 15.3099 58.2297 15.2891L58.2219 14.1172C58.2635 14.1224 58.3286 14.1276 58.4172 14.1328C58.5109 14.1432 58.576 14.1484 58.6125 14.1484C58.9406 14.1484 59.2193 14.1042 59.4484 14.0156C59.6776 13.9323 59.8703 13.7891 60.0266 13.5859C60.188 13.388 60.326 13.1146 60.4406 12.7656L61.0422 11.125ZM59.3156 3.54688L61.5109 10.1094L61.8859 11.6328L60.8469 12.1641L57.7375 3.54688H59.3156Z" fill="#868686"/>
</svg>
