<svg width="20" height="20" viewBox="0 0 20 20" fill="none" xmlns="http://www.w3.org/2000/svg">
<path d="M10 0L11.6034 3.49469L14.6472 1.14544L14.4429 4.98498L18.2298 4.31935L16.2646 7.62415L19.9271 8.79463L16.6511 10.8076L19.3502 13.546L15.514 13.806L16.6312 17.4851L13.1136 15.9326L12.3932 19.7094L10 16.7L7.60684 19.7094L6.88635 15.9326L3.36877 17.4851L4.48601 13.806L0.649837 13.546L3.34885 10.8076L0.0729113 8.79463L3.73539 7.62415L1.77016 4.31935L5.55708 4.98498L5.35277 1.14544L8.39659 3.49469L10 0Z" fill="white"/>
<path d="M15 10C15 12.7614 12.7614 15 10 15C7.23858 15 5 12.7614 5 10C5 7.23858 7.23858 5 10 5C12.7614 5 15 7.23858 15 10Z" fill="white"/>
<path fill-rule="evenodd" clip-rule="evenodd" d="M10 14.0909C12.2593 14.0909 14.0909 12.2593 14.0909 10C14.0909 7.74065 12.2593 5.90909 10 5.90909C7.74065 5.90909 5.90909 7.74065 5.90909 10C5.90909 12.2593 7.74065 14.0909 10 14.0909ZM10 15C12.7614 15 15 12.7614 15 10C15 7.23858 12.7614 5 10 5C7.23858 5 5 7.23858 5 10C5 12.7614 7.23858 15 10 15Z" fill="#C2C2C2"/>
</svg>
